<svg width="21" height="21" viewBox="0 0 21 21" fill="none" xmlns="http://www.w3.org/2000/svg">
<path d="M11.5708 0.0842895C12.331 0.0813726 13.0911 0.0890123 13.851 0.107206L14.0531 0.114498C14.2865 0.122831 14.5167 0.133248 14.7948 0.145748C15.9031 0.197831 16.6594 0.372831 17.3229 0.630123C18.0104 0.894706 18.5896 1.25304 19.1688 1.83221C19.6983 2.35263 20.1082 2.98215 20.3698 3.677C20.6271 4.34054 20.8021 5.09783 20.8542 6.20616C20.8667 6.48325 20.8771 6.7145 20.8854 6.94783L20.8917 7.14991C20.9102 7.90949 20.9182 8.66928 20.9156 9.42908L20.9167 10.2062V11.5707C20.9192 12.3309 20.9112 13.091 20.8927 13.851L20.8865 14.053C20.8781 14.2864 20.8677 14.5166 20.8552 14.7947C20.8031 15.903 20.626 16.6593 20.3698 17.3228C20.109 18.0184 19.6991 18.6485 19.1688 19.1687C18.6479 19.6982 18.018 20.108 17.3229 20.3697C16.6594 20.627 15.9031 20.802 14.7948 20.8541C14.5167 20.8666 14.2865 20.877 14.0531 20.8853L13.851 20.8916C13.0911 20.9101 12.331 20.9181 11.5708 20.9155L10.7937 20.9166H9.43021C8.67006 20.9191 7.90992 20.9112 7.15 20.8926L6.94792 20.8864C6.70064 20.8774 6.45341 20.867 6.20625 20.8551C5.09792 20.803 4.34167 20.626 3.67708 20.3697C2.98196 20.1086 2.35233 19.6987 1.83229 19.1687C1.30213 18.6481 0.891901 18.0182 0.630209 17.3228C0.372918 16.6593 0.197917 15.903 0.145834 14.7947C0.134233 14.5475 0.123816 14.3003 0.114584 14.053L0.109376 13.851C0.0901714 13.091 0.0814899 12.3309 0.0833342 11.5707V9.42908C0.0804269 8.66929 0.0880666 7.90949 0.106251 7.14991L0.113543 6.94783C0.121876 6.7145 0.132293 6.48325 0.144793 6.20616C0.196876 5.09679 0.371876 4.34158 0.629167 3.677C0.891014 2.98181 1.30205 2.35246 1.83333 1.83325C2.35302 1.30278 2.98225 0.892178 3.67708 0.630123C4.34167 0.372831 5.09688 0.197831 6.20625 0.145748L6.94792 0.114498L7.15 0.10929C7.90957 0.0900947 8.66936 0.0814132 9.42917 0.0832479L11.5708 0.0842895ZM10.5 5.29262C9.8099 5.28286 9.12475 5.41036 8.48435 5.66769C7.84396 5.92503 7.26109 6.30708 6.76963 6.79164C6.27817 7.2762 5.88792 7.8536 5.62155 8.49029C5.35518 9.12699 5.21801 9.81027 5.21801 10.5004C5.21801 11.1906 5.35518 11.8739 5.62155 12.5106C5.88792 13.1473 6.27817 13.7247 6.76963 14.2092C7.26109 14.6938 7.84396 15.0758 8.48435 15.3332C9.12475 15.5905 9.8099 15.718 10.5 15.7082C11.8813 15.7082 13.2061 15.1595 14.1828 14.1828C15.1596 13.206 15.7083 11.8813 15.7083 10.4999C15.7083 9.11858 15.1596 7.79382 14.1828 6.81707C13.2061 5.84031 11.8813 5.29262 10.5 5.29262ZM10.5 7.37596C10.9151 7.36831 11.3276 7.44345 11.7133 7.597C12.0991 7.75056 12.4503 7.97944 12.7466 8.27027C13.0429 8.56111 13.2783 8.90807 13.439 9.29089C13.5997 9.67372 13.6825 10.0847 13.6826 10.4999C13.6826 10.9151 13.6 11.3261 13.4394 11.709C13.2788 12.0919 13.0436 12.4389 12.7474 12.7298C12.4512 13.0208 12.1 13.2498 11.7143 13.4035C11.3286 13.5571 10.9162 13.6324 10.501 13.6249C9.67224 13.6249 8.87738 13.2957 8.29133 12.7096C7.70528 12.1236 7.37604 11.3287 7.37604 10.4999C7.37604 9.67111 7.70528 8.87626 8.29133 8.29021C8.87738 7.70415 9.67224 7.37491 10.501 7.37491L10.5 7.37596ZM15.9688 3.73012C15.6327 3.74357 15.3149 3.88653 15.0819 4.12905C14.8489 4.37157 14.7187 4.69485 14.7187 5.03116C14.7187 5.36748 14.8489 5.69076 15.0819 5.93328C15.3149 6.1758 15.6327 6.31876 15.9688 6.33221C16.3141 6.33221 16.6453 6.19502 16.8895 5.95083C17.1337 5.70665 17.2708 5.37546 17.2708 5.03012C17.2708 4.68479 17.1337 4.3536 16.8895 4.10941C16.6453 3.86522 16.3141 3.72804 15.9688 3.72804V3.73012Z" fill="#F8F8F8"/>
</svg>
