<svg width="22" height="19" viewBox="0 0 22 19" fill="none" xmlns="http://www.w3.org/2000/svg">
<path d="M21.7917 2.72909C20.9896 3.09367 20.125 3.33325 19.2292 3.44784C20.1458 2.89575 20.8542 2.02075 21.1875 0.968669C20.3229 1.4895 19.3646 1.85409 18.3542 2.06242C17.5312 1.16659 16.375 0.645752 15.0625 0.645752C12.6146 0.645752 10.6146 2.64575 10.6146 5.1145C10.6146 5.46867 10.6562 5.81242 10.7292 6.13534C7.02083 5.94784 3.71875 4.16659 1.52083 1.46867C1.13542 2.12492 0.916667 2.89575 0.916667 3.70825C0.916667 5.26034 1.69792 6.63533 2.90625 7.41658C2.16667 7.41658 1.47917 7.20825 0.875 6.89575V6.927C0.875 9.09367 2.41667 10.9062 4.45833 11.3124C3.80284 11.4918 3.11468 11.5168 2.44792 11.3853C2.73084 12.2733 3.28493 13.0503 4.03231 13.6071C4.77968 14.1639 5.68276 14.4725 6.61458 14.4895C5.03503 15.74 3.07708 16.4159 1.0625 16.4062C0.708333 16.4062 0.354167 16.3853 0 16.3437C1.97917 17.6145 4.33333 18.3541 6.85417 18.3541C15.0625 18.3541 19.5729 11.5416 19.5729 5.63533C19.5729 5.43742 19.5729 5.24992 19.5625 5.052C20.4375 4.427 21.1875 3.63534 21.7917 2.72909Z" fill="#F8F8F8"/>
</svg>
